# xmcd
#
# Track frame offsets: 
#        150
#        13729
#        22535
#        34882
#        54239
#        69826
#        86041
#        100675
#        115956
#        127932
#        150823
#        161551
#        184790
#        202571
#        217274
#        230746
#        242448
#        253574
#        273684
#        289876
#        301143
#
# Disc length: 4216 seconds
#
# Revision: 3
# Processed by: cddbd v1.5.2PL0 Copyright (c) Steve Scherf et al.
# Submitted via: ExactAudioCopy v1.1
#
DISCID=0c107615
DTITLE=Various Artist - Country forever
DYEAR=2006
DGENRE=Country
TTITLE0=Texas Lightning - No no never
TTITLE1=Anita Carter - (Love's) Ring of fFire
TTITLE2=Johnny Cash - I walk the line
TTITLE3=Sheryl Crow - Everyday is a winding road
TTITLE4=The BossHoss - You'll never walk alone
TTITLE5=Uncle Kracker - Follow me
TTITLE6=Lee Hazlewood - These boots are made for walkin'
TTITLE7=Tanja Tucker - Delta dawn
TTITLE8=Wanda Jackson - Stand by your man
TTITLE9=Wynonna Judd - I want to know what love is
TTITLE10=J. J. Cale - After midnight
TTITLE11=Billy Bob Thornton - Lost highway
TTITLE12=Hank Williams, Jr. - All my rowdy friends are coming over ton
TTITLE12=ight
TTITLE13=Bellamy Brothers - Let your love flow
TTITLE14=Loretta Lynn - Coal miner's daughter
TTITLE15=Ryan Adams - Gonna make you love me
TTITLE16=Roger Miller - King of the road
TTITLE17=Dolly Parton - Honky tonk songs
TTITLE18=Alabama - The closer you get
TTITLE19=Leroy Pullins - I'm a nut
TTITLE20=Willie Nelson - I'm my own grandpaw
EXTD=YEAR: 2006
EXTT0=
EXTT1=
EXTT2=
EXTT3=
EXTT4=
EXTT5=
EXTT6=
EXTT7=
EXTT8=
EXTT9=
EXTT10=
EXTT11=
EXTT12=
EXTT13=
EXTT14=
EXTT15=
EXTT16=
EXTT17=
EXTT18=
EXTT19=
EXTT20=
PLAYORDER=
